Coordinates
version=1
nRows=11
nColumns=36
inDegrees=yes

Units are S.I. units (second, meters, Newtons, ...)
If the header above contains a line with 'inDegrees', this indicates whether rotational values are in degrees (yes) or radians (no).

endheader
time	pelvis_tilt	pelvis_list	pelvis_rotation	pelvis_tx	pelvis_ty	pelvis_tz	hip_flexion_r	hip_adduction_r	hip_rotation_r	knee_angle_r	knee_angle_r_beta	ankle_angle_r	subtalar_angle_r	mtp_angle_r	hip_flexion_l	hip_adduction_l	hip_rotation_l	knee_angle_l	knee_angle_l_beta	ankle_angle_l	subtalar_angle_l	mtp_angle_l	lumbar_extension	lumbar_bending	lumbar_rotation	arm_flex_r	arm_add_r	arm_rot_r	elbow_flex_r	pro_sup_r	arm_flex_l	arm_add_l	arm_rot_l	elbow_flex_l	pro_sup_l
      0.32000000	      4.27007585	     -0.39168506	      7.25863051	      0.20356816	      0.90834646	     -0.21679593	      3.00196246	      6.59578966	      2.64814301	     16.35926873	      0.28552310	      8.31563763	    -15.50082696	     -6.94561370	     17.24899341	     -1.33913535	     -1.18973642	     69.47078205	      1.21249388	     -2.81018362	     -9.94231753	     -6.94561370	    -12.07505886	      0.75277766	     -1.33098614	      5.96726943	     -6.65697272	     -4.68373855	     26.30190512	     90.47754967	      6.12547364	     -6.63745747	     -0.73265932	     25.93443774	     94.72996052
      0.33000000	      4.34708492	     -0.29159374	      6.80140869	      0.21668172	      0.90987810	     -0.21589000	      1.27157084	      6.65021390	      3.20000644	     15.00809711	      0.26194071	      8.74416342	    -14.67702318	     -6.96115868	     18.59703008	     -0.94673806	     -1.40312792	     68.10413420	      1.18864138	     -1.50022075	     -8.80376504	     -6.96115868	    -12.31327235	      0.52199181	     -0.57525513	      6.01409376	     -6.85996319	     -4.83528199	     28.56657426	     90.95353690	      5.32971912	     -6.63374586	     -0.89612716	     25.69861863	     94.67400669
      0.34000000	      4.23310610	     -0.19995754	      6.32772411	      0.22981387	      0.91086172	     -0.21499976	     -0.16664923	      6.64668627	      3.49111679	     13.78942953	      0.24067095	      9.07484132	    -13.99956156	     -6.97284645	     20.04586603	     -0.55412173	     -1.60461185	     66.41975058	      1.15924334	     -0.70398538	     -8.21091428	     -6.97284645	    -12.26587568	      0.27684681	      0.04054745	      6.28512499	     -6.89786290	     -5.07760079	     30.23361504	     91.33256152	      4.38969673	     -6.64678431	     -0.96489992	     25.42461552	     94.64636250
      0.35000000	      4.12007837	     -0.09068027	      5.87226453	      0.24293409	      0.91149460	     -0.21416900	     -1.57887773	      6.59088662	      3.64308852	     12.61864474	      0.22023690	      9.42448211	    -13.23849972	     -6.98725826	     21.39199811	     -0.17168322	     -1.79946946	     64.46290941	      1.12509001	     -0.01310354	     -7.66101259	     -6.98725826	    -12.23838514	      0.01434403	      0.71403848	      6.47420037	     -6.98169668	     -5.43510659	     31.97075138	     91.81036454	      3.49491568	     -6.69983524	     -1.02990709	     25.17218654	     94.63360428
      0.36000000	      3.77553960	     -0.00419341	      5.45023592	      0.25601460	      0.91148758	     -0.21342822	     -2.68196618	      6.52558915	      3.78598895	     11.56027104	      0.20176479	      9.60277348	    -12.75115773	     -6.99158508	     22.90763592	      0.23476691	     -1.88879880	     62.24874862	      1.08644562	      0.36055964	     -7.46663805	     -6.99158508	    -11.88682529	     -0.24122304	      1.17484033	      6.89711776	     -7.04762545	     -5.41646078	     33.10101796	     92.01826546	      2.48911402	     -6.79633719	     -1.07959685	     24.82349846	     94.60415491
      0.37000000	      3.82209092	     -0.00025679	      5.03092769	      0.26905843	      0.91166623	     -0.21277331	     -4.28901152	      6.57262387	      4.03873376	     10.34369241	      0.18053149	     10.07391997	    -11.85949271	     -7.00141501	     23.84944828	      0.45166914	     -1.98184770	     59.70854508	      1.04211070	      0.76279030	     -7.17671925	     -7.00141501	    -12.08106074	     -0.32805361	      1.86651834	      7.03689186	     -7.29086687	     -5.37649485	     35.00018195	     92.46652085	      1.68513837	     -6.78819607	     -1.17192427	     24.61249969	     94.58783680
      0.38000000	      3.55603560	      0.03602967	      4.63064158	      0.28220761	      0.91109503	     -0.21215585	     -5.44385907	      6.53032667	      4.11248566	      9.34778522	      0.16314963	     10.40313689	    -11.19007747	     -7.00784873	     25.01945446	      0.73621926	     -2.02397015	     56.93999667	      0.99379042	      1.07052329	     -7.01778115	     -7.00784873	    -11.83201049	     -0.49684824	      2.39460190	      7.32512433	     -7.43921812	     -5.29941946	     36.29551659	     92.78346637	      0.76099923	     -6.83508571	     -1.27924101	     24.24481902	     94.55044114
      0.39000000	      3.50195658	      0.03707579	      4.21870581	      0.29532866	      0.91051866	     -0.21164722	     -6.84578679	      6.52397750	      4.17824466	      8.32591887	      0.14531470	     10.97111685	    -10.22955447	     -7.01726256	     25.78977601	      0.94311919	     -2.09081029	     53.83700078	      0.93963292	      1.32134565	     -6.93638220	     -7.01726256	    -11.89831646	     -0.57834303	      3.04244631	      7.52958172	     -7.71975851	     -5.07481248	     37.90199316	     93.26085104	      0.02268232	     -6.80583275	     -1.46701950	     23.87387597	     94.50053171
      0.40000000	      3.33895020	      0.08143414	      3.83659693	      0.30855036	      0.90947718	     -0.21129828	     -7.95011055	      6.39870756	      3.68051470	      7.67638381	      0.13397817	     12.13826480	     -8.17145909	     -7.13664799	     26.54429147	      1.21864610	     -2.09922288	     50.49133978	      0.88124012	      1.52180283	     -7.02148007	     -7.13664799	    -11.80175760	     -0.69004346	      3.60255564	      7.74344696	     -7.91988067	     -5.25725996	     39.13099156	     96.90852856	     -0.76041523	     -6.77533597	     -1.83604584	     23.40628975	     94.50329206
      0.41000000	      2.91931052	     -0.00625176	      3.43647398	      0.32173061	      0.90784432	     -0.21084396	     -8.78157124	      6.45916388	      3.85455588	      7.00114697	      0.12219307	     12.38068152	     -7.83459599	     -7.13945694	     27.48053224	      1.33271808	     -2.03615449	     46.95820360	      0.81957526	      1.90606410	     -6.89596968	     -7.13945694	    -11.39024327	     -0.69887956	      4.09460514	      8.12268420	     -8.09248657	     -4.98272246	     40.04643912	     97.03750159	     -1.62283484	     -6.75661026	     -1.96802783	     22.96228781	     94.44316134
      0.42000000	      2.95188382	      0.02086102	      3.00133517	      0.33503462	      0.90658380	     -0.21049238	    -10.17203218	      6.37710081	      3.94628866	      6.23957484	      0.10890112	     13.03901871	     -6.92103530	     -7.14829520	     27.67614450	      1.49463424	     -2.12691373	     43.04416233	      0.75126236	      2.16670517	     -7.00674346	     -7.14829520	    -11.53421758	     -0.78243785	      4.75241775	      8.31209488	     -8.52590254	     -4.31148806	     41.49406115	     97.35926632	     -2.18296607	     -6.72080773	     -2.36557023	     22.28590521	     94.29947901
